<svg width="362" height="97" viewBox="0 0 362 97" fill="none" xmlns="http://www.w3.org/2000/svg">
<path d="M309.306 52.5198L304.878 56.2316V64.3587C304.878 65.273 305.242 65.7106 306.26 65.9763V66.6874H297.062V65.9763C298.095 65.6872 298.444 65.2652 298.444 64.3587V38.6881C298.444 37.7972 298.103 37.3753 297.062 37.0861V36.375H306.26V37.0861C305.227 37.3518 304.878 37.7972 304.878 38.6881V49.3002L317.007 39.1101C317.569 38.6412 317.85 38.2661 317.85 37.977C317.85 37.555 317.44 37.2424 316.597 37.0861V36.375H328.643V37.0861C328.15 37.1955 327.777 37.3049 327.565 37.4378C327.345 37.5706 326.722 38.0786 325.689 38.946L324.025 40.3682L314.007 48.6516L325.362 62.7099C326.418 64.0227 327.177 64.8667 327.626 65.2418C328.104 65.6169 328.681 65.8669 329.395 65.9763V66.6874H317.888V65.9763C318.64 65.82 319.035 65.5309 319.035 65.1324C319.035 64.9292 318.693 64.3744 318.002 63.4913L309.306 52.5198Z" fill="#D1AF6D"/>
<path d="M342.715 62.0656H359.296C360.233 62.0656 360.677 61.7015 360.981 60.593H361.729V68.7082H360.981C360.677 67.6079 360.233 67.2357 359.296 67.2357H331.416V65.6256L349.954 41.0211H334.005C333.043 41.0211 332.599 41.369 332.304 42.4693H331.556V34.3541H332.304C332.657 35.4788 333.051 35.8509 334.005 35.8509H361.466V37.1617L342.715 62.0656Z" fill="#D1AF6D"/>
<path d="M284.937 56.5833C286.073 56.5833 287.028 57.0793 287.794 58.0628C288.582 59.0462 288.979 60.2472 288.979 61.6658C288.979 63.0844 288.582 64.2158 287.773 65.2079C286.986 66.1913 286.045 66.6874 284.937 66.6874C283.829 66.6874 282.868 66.1913 282.08 65.2079C281.293 64.1897 280.896 62.9886 280.896 61.6049C280.896 60.2211 281.293 59.0549 282.052 58.0976C282.84 57.1141 283.801 56.6181 284.937 56.592V56.5833Z" fill="#D1AF6D"/>
<path d="M127.312 37.5263L123.545 44.8689L122.894 44.5066C122.918 44.3456 122.918 44.2328 122.918 44.1443C122.918 43.621 122.479 43.0654 121.575 42.4777C118.825 40.5776 115.611 39.6437 111.908 39.6437C110.264 39.6437 108.832 39.853 107.587 40.2395C105.756 40.8594 104.535 42.1637 104.535 43.6049C104.535 44.7723 105.251 45.5693 106.684 46.0041C107.424 46.2134 109.019 46.4389 111.444 46.6884L115.074 47.0507C117.222 47.2762 118.98 47.5982 120.298 47.9927C121.641 48.3792 122.821 48.9508 123.862 49.6593C125.97 51.1488 127.264 53.7573 127.264 56.5269C127.264 58.7249 126.548 60.6652 125.115 62.3881C123.821 63.942 121.811 65.0852 119.077 65.842C117.043 66.4137 114.87 66.6874 112.535 66.6874C108.352 66.6874 104.234 65.7052 100.166 63.7165C99.3111 63.3301 98.774 63.1208 98.6194 63.1208C98.4078 63.1208 98.1067 63.2818 97.6673 63.628L97 63.2818L100.426 55.6171L101.093 55.9392V56.2371C101.093 56.9214 101.419 57.5655 102.086 58.1371C103.079 59.0308 104.633 59.7876 106.733 60.4236C108.84 61.0677 110.826 61.3817 112.697 61.3817C114.756 61.3817 116.489 61.0355 117.946 60.3512C119.541 59.5944 120.583 58.2257 120.583 56.8489C120.583 55.8184 120.029 55.0616 118.898 54.6268C118.109 54.3289 116.514 54.0311 114.138 53.7815L110.573 53.4192C108.189 53.1696 106.505 52.9361 105.512 52.7348C104.519 52.5094 103.543 52.139 102.55 51.656C101.142 50.9716 100.052 49.9411 99.246 48.5643C98.5299 47.3325 98.1555 45.9075 98.1555 44.3053C98.1555 41.6726 99.0832 39.4746 100.906 37.7597C103.315 35.4974 106.92 34.3541 111.729 34.3541C113.739 34.3541 115.635 34.5635 117.368 34.9741C119.102 35.3605 121.274 36.1173 123.887 37.1962C124.79 37.5424 125.319 37.7195 125.53 37.7195C125.856 37.7195 126.222 37.5343 126.661 37.1962L127.312 37.5424V37.5263Z" fill="#D1AF6D"/>
<path d="M153.711 58.9609H140.169L138.164 63.2265C137.879 63.8281 137.749 64.289 137.749 64.625C137.749 65.2656 138.233 65.7343 139.209 65.9765V66.6874H129.333V65.9765C129.925 65.8671 130.363 65.6406 130.663 65.3515C130.97 65.0625 131.316 64.4843 131.708 63.6171L142.675 40.3281C143.021 39.5937 143.197 39 143.197 38.5547C143.197 37.8672 142.782 37.375 141.929 37.0859V36.375H152.497V37.0859C151.644 37.3281 151.206 37.7734 151.206 38.3984C151.206 38.8203 151.336 39.3125 151.621 39.8672L162.98 63.2265C163.464 64.2265 163.871 64.8906 164.248 65.2656C164.617 65.6171 165.101 65.8671 165.708 65.9765V66.6874H154.741V65.9765C155.702 65.8203 156.186 65.3515 156.186 64.6015C156.186 64.289 156.032 63.8281 155.748 63.2265L153.696 58.9609H153.711ZM151.836 54.8125L147.009 44.0234L142.114 54.8125H151.836Z" fill="#D1AF6D"/>
<path d="M178.087 54.3171V64.3744C178.087 65.2652 178.476 65.7106 179.561 65.9763V66.6874H169.75V65.9763C170.851 65.6872 171.224 65.2652 171.224 64.3744V38.7037C171.224 37.7894 170.86 37.3674 169.75 37.0861V36.375H189.414C191.812 36.375 193.7 36.5078 195.102 36.7735C196.504 37.0392 197.751 37.5081 198.788 38.1723C200.012 38.946 200.911 39.9931 201.503 41.306C202.078 42.5719 202.354 43.9473 202.354 45.3929C202.354 50.3473 199.501 53.2309 193.814 54.0748L199.915 62.4442C200.992 63.9133 201.778 64.8667 202.264 65.2887C202.767 65.7106 203.391 65.9294 204.104 65.9763V66.6874H192.728V65.9763C193.514 65.8669 193.903 65.6012 193.903 65.1792C193.903 64.9136 193.538 64.2728 192.817 63.2491L186.465 54.3249H178.087V54.3171ZM178.087 49.3236H188.677C190.24 49.3236 191.35 49.2767 191.991 49.1908C192.639 49.1048 193.238 48.9251 193.765 48.636C194.94 48.0342 195.515 46.9246 195.515 45.346C195.515 43.7675 194.94 42.6579 193.765 42.0561C193.214 41.767 192.614 41.5638 191.991 41.5013C191.367 41.4154 190.265 41.3685 188.677 41.3685H178.087V49.3158V49.3236Z" fill="#D1AF6D"/>
<path d="M230.495 58.9609H216.954L214.948 63.2265C214.663 63.8281 214.533 64.289 214.533 64.625C214.533 65.2656 215.017 65.7343 216.001 65.9765V66.6874H206.125V65.9765C206.717 65.8671 207.155 65.6406 207.455 65.3515C207.762 65.0625 208.108 64.4843 208.5 63.6171L219.467 40.3281C219.813 39.5937 219.989 39 219.989 38.5547C219.989 37.8672 219.574 37.375 218.721 37.0859V36.375H229.289V37.0859C228.436 37.3281 227.998 37.7734 227.998 38.3984C227.998 38.8203 228.128 39.3125 228.413 39.8672L239.772 63.2265C240.256 64.2265 240.671 64.8906 241.04 65.2656C241.409 65.6171 241.893 65.8671 242.5 65.9765V66.6874H231.533V65.9765C232.494 65.8203 232.978 65.3515 232.978 64.6015C232.978 64.289 232.824 63.8281 232.54 63.2265L230.488 58.9609H230.495ZM228.62 54.8125L223.794 44.0234L218.898 54.8125H228.62Z" fill="#D1AF6D"/>
<path d="M274.826 37.5263L271.31 44.8689L270.703 44.5066C270.725 44.3456 270.725 44.2328 270.725 44.1443C270.725 43.621 270.315 43.0654 269.472 42.4777C266.906 40.5776 263.907 39.6437 260.452 39.6437C258.918 39.6437 257.582 39.853 256.42 40.2395C254.719 40.8594 253.573 42.1637 253.573 43.6049C253.573 44.7723 254.241 45.5693 255.577 46.0041C256.268 46.2134 257.756 46.4389 260.019 46.6884L263.406 47.0507C265.41 47.2762 267.05 47.5982 268.28 47.9927C269.533 48.3792 270.634 48.9508 271.606 49.6593C273.573 51.1488 274.78 53.7573 274.78 56.5269C274.78 58.7249 274.112 60.6652 272.775 62.3881C271.568 63.942 269.693 65.0852 267.141 65.842C265.243 66.4137 263.216 66.6874 261.037 66.6874C257.134 66.6874 253.292 65.7052 249.495 63.7165C248.698 63.3301 248.204 63.1208 248.053 63.1208C247.855 63.1208 247.574 63.2818 247.164 63.628L246.542 63.2818L249.738 55.6171L250.361 55.9392V56.2371C250.361 56.9214 250.665 57.5655 251.287 58.1371C252.213 59.0308 253.664 59.7876 255.623 60.4236C257.589 61.0677 259.442 61.3817 261.188 61.3817C263.109 61.3817 264.727 61.0355 266.086 60.3512C267.574 59.5944 268.546 58.2257 268.546 56.8489C268.546 55.8184 268.03 55.0616 266.974 54.6268C266.238 54.3289 264.75 54.0311 262.532 53.7815L259.207 53.4192C256.982 53.1696 255.41 52.9361 254.484 52.7348C253.557 52.5094 252.646 52.139 251.72 51.656C250.406 50.9716 249.389 49.9411 248.637 48.5643C247.969 47.3325 247.627 45.9075 247.627 44.3053C247.627 41.6726 248.493 39.4746 250.194 37.7597C252.434 35.4974 255.805 34.3541 260.292 34.3541C262.168 34.3541 263.937 34.5635 265.554 34.9741C267.172 35.3605 269.199 36.1173 271.636 37.1962C272.479 37.5424 272.973 37.7195 273.17 37.7195C273.474 37.7195 273.816 37.5343 274.226 37.1962L274.833 37.5424L274.826 37.5263Z" fill="#D1AF6D"/>
<path d="M0 24.097L11.4297 17.6271V40.0989L64.3345 70.3261V83.9632L41.9654 97L0 72.891V59.5146L41.9654 83.4841L51.4095 78.1542L0 48.4424V24.097Z" fill="#D1AF6D"/>
<path d="M19.1909 12.8246L41.8808 0L83.8644 24.0665V37.8613L42.123 13.5522L33.0846 18.9306L83.8644 48.4423V73.0425L72.5195 79.67V57.3134L19.1909 26.3101V12.8246Z" fill="#D1AF6D"/>
</svg>
